<svg width="40" height="40" viewBox="0 0 40 40" fill="none" xmlns="http://www.w3.org/2000/svg">
<path d="M18.9658 33.6857C33.7889 33.6857 40.1254 29.3913 34.3109 16.5054C28.7261 4.12863 18.9658 4.97426 18.9658 4.97426C18.9658 4.97426 8.69101 4.62473 3.62062 16.5054C-1.92852 29.5077 4.14257 33.6857 18.9658 33.6857Z" fill="#F8C700"/>
<path d="M34.3108 16.5054C28.7259 4.12863 18.9656 4.97426 18.9656 4.97426C18.9656 4.97426 12.9025 4.7684 7.79297 10.0584C12.6281 5.85684 17.8492 6.0341 17.8492 6.0341C17.8492 6.0341 27.6095 5.18856 33.1944 17.5653C35.9478 23.6674 35.976 27.8426 33.6688 30.5478C37.0462 27.9242 37.4532 23.4697 34.3108 16.5054Z" fill="#FFE75A"/>
<path d="M36.3262 26.1274C36.3262 26.1274 33.7771 32.6619 19.9596 32.0504C6.14195 31.4389 1.54242 22.5285 4.00625 15.6467C3.8724 15.9306 3.74384 16.217 3.62062 16.5056C-1.92852 29.508 4.14257 33.6859 18.9658 33.6859C29.2017 33.6859 35.3905 31.6378 36.3262 26.1274H36.3262Z" fill="#F9A723"/>
<path d="M15.3618 9.06554C17.9035 8.2807 20.9019 8.77375 23.4436 10.5445C23.4405 10.5573 23.0437 8.09609 21.986 6.72515C21.4647 6.0025 19.8697 5.65804 18.4003 6.20359C16.9233 6.67687 15.5718 8.04023 15.3618 9.06554ZM32.2892 10.2585C30.3882 9.31367 27.9615 9.37367 25.7288 10.5445C25.7296 10.5555 26.3617 8.56398 27.3731 7.55187C27.8777 7.01406 29.1792 6.91414 30.2663 7.5364C31.3688 8.09968 32.2569 9.38531 32.2892 10.2585Z" fill="#60341B"/>
<path d="M13.2661 16.1062C13.2661 17.5366 13.8474 18.8312 14.7856 19.7679C17.17 19.7663 18.7692 20.5195 19.6724 21.1273C21.9302 20.5734 23.606 18.5359 23.606 16.1062C23.606 13.2515 21.2911 10.9366 18.4364 10.9366C15.581 10.9366 13.2661 13.2515 13.2661 16.1062Z" fill="white"/>
<path d="M16.8731 17.3737C17.3273 16.9684 17.8003 17.7882 18.5613 18.1665C19.3348 18.4683 20.1213 18.2215 20.2249 18.8593C20.2853 19.4421 19.2788 20.182 18.0816 19.6664C16.8567 19.1459 16.4819 17.7752 16.8731 17.3737Z" fill="#60341B"/>
<path d="M32.6071 17.144C32.5327 18.426 32.0513 19.548 31.3343 20.3262C29.636 20.1688 28.4577 20.7391 27.7828 21.2248C26.2033 20.5807 25.1156 18.6451 25.2419 16.4676C25.3903 13.9092 27.1596 11.986 29.193 12.1728C31.227 12.3595 32.7555 14.5856 32.6071 17.1439V17.144Z" fill="white"/>
<path d="M29.9925 18.0273C29.6839 17.6263 29.2965 18.3445 28.7233 18.6397C28.145 18.8641 27.5864 18.5858 27.4772 19.1623C27.4023 19.6912 28.0947 20.4352 28.9923 20.0435C29.9104 19.6493 30.2556 18.4206 29.9925 18.0273Z" fill="#60341B"/>
<path d="M18.8733 30.4595C22.7726 30.308 23.5069 32.876 22.6491 34.8408C18.0772 35.6306 13.5983 34.1705 13.4858 28.1627C16.5757 28.122 18.2577 29.04 18.8733 30.4595Z" fill="#EA4747"/>
<path d="M31.4781 25.4041C31.4781 25.4041 31.1406 26.6103 30.3797 28.1619C21.3313 29.2885 13.7586 25.0658 13.7586 25.0658H13.7578C13.9 24.2681 14.0992 23.4142 14.3617 22.5017C14.5219 22.4361 14.7289 22.3705 14.9844 22.3236C14.9844 22.3236 16.2133 23.1353 21.3625 24.2392C26.5125 25.3424 31.4781 25.4041 31.4781 25.4041Z" fill="white"/>
<path d="M21.9317 25.4242C25.5575 26.1201 28.8087 26.3785 31.1162 26.4651C31.363 25.8151 31.4781 25.4041 31.4781 25.4041C31.4781 25.4041 26.5125 25.3424 21.3625 24.2392C16.2133 23.1353 14.9844 22.3236 14.9844 22.3236C14.7289 22.3705 14.5219 22.4361 14.3617 22.5017C14.3192 22.6499 14.2779 22.7984 14.2378 22.9472C15.6661 23.6995 18.1016 24.689 21.9317 25.4242Z" fill="#E2E2E2"/>
<path d="M30.3798 28.1619C29.1775 30.615 26.9181 33.9338 23.2634 34.722C23.0587 34.7658 22.854 34.8056 22.6493 34.8408C23.5071 32.876 22.7728 30.308 18.8735 30.4595C18.2579 29.04 16.5759 28.122 13.486 28.1627C13.4689 27.24 13.554 26.2103 13.7579 25.0658H13.7587C13.7587 25.0658 21.3314 29.2885 30.3798 28.1619Z" fill="#2D1200"/>
<path d="M30.8931 27.6878C29.4679 27.5067 29.7392 23.91 33.3291 24.1646C33.3891 24.1681 33.4499 24.1733 33.5114 24.1801C35.2408 24.3595 36.4263 24.9368 37.1565 25.7699V25.7707C38.0145 26.7497 38.243 28.0813 37.984 29.5357C37.505 32.2281 35.658 33.6411 35.2952 33.8753C32.9733 35.375 30.9645 34.0346 29.8778 33.1818C29.0484 32.531 29.2731 31.1735 30.0341 30.6668C29.2022 30.1371 29.1645 28.0989 30.8931 27.6878Z" fill="#FFEDD9"/>
<path d="M35.4122 20.2067C37.4949 19.7166 38.4941 20.5692 38.4019 21.1569C38.3098 21.7455 37.4843 22.2758 37.0525 23.2585C36.626 24.2257 37.1408 25.7254 37.1567 25.7699C36.4266 24.9368 35.2411 24.3595 33.5116 24.1801C33.4509 24.1734 33.3901 24.1682 33.3292 24.1646V24.1638C32.8183 22.3945 33.3295 20.6968 35.4122 20.2067Z" fill="#FFEDD9"/>
<path d="M15.4174 9.28754C17.9292 8.51215 20.8674 9.04911 23.2809 10.7244C23.3253 10.7634 23.3778 10.7757 23.4237 10.777C23.5737 10.7851 23.697 10.6309 23.6576 10.4868C23.5073 9.6909 23.0797 7.7809 22.1624 6.58614C21.5351 5.7166 19.7719 5.43942 18.3101 5.98004C16.8183 6.46012 15.3575 7.84957 15.1185 9.01661C15.0788 9.18457 15.2538 9.34348 15.4174 9.28754ZM18.4581 6.42481C19.8483 5.90364 21.3334 6.23504 21.7868 6.86645C22.4814 7.76676 22.8907 9.1959 23.0841 10.0344C20.8035 8.63567 18.2211 8.11504 15.7113 8.71934C16.1046 7.86903 17.1916 6.83075 18.4582 6.42481H18.4581ZM13.6324 19.5861C13.3273 19.6229 13.3659 20.0725 13.6763 20.0529C14.2441 20 14.7398 19.9907 15.278 20.0129C18.7327 20.1736 20.3707 22.0119 20.3825 22.0334C20.5859 22.2629 20.9348 21.972 20.7401 21.7303C20.7154 21.7011 20.5335 21.4924 20.1844 21.2147C25.8892 19.1585 24.5115 10.805 18.4228 10.7004C13.8873 10.6813 11.352 16.0719 14.2542 19.5447C14.0514 19.5537 13.8455 19.5661 13.6324 19.5861H13.6324ZM13.487 16.1043C13.487 13.383 15.7013 11.1691 18.4229 11.1691C24.1713 11.2854 25.2225 19.2791 19.7075 20.8707C19.4088 20.6749 19.042 20.469 18.6063 20.2783C22.3864 20.3903 22.3892 13.8939 18.7467 14.2131C15.9335 14.5046 15.4991 18.4579 17.2538 19.8211C16.5681 19.6503 15.776 19.5379 14.8705 19.5318C13.9775 18.606 13.487 17.3927 13.487 16.1043ZM18.5154 18.2408C19.1846 18.5019 19.865 18.2884 19.9547 18.8402C20.007 19.3444 19.1363 19.9846 18.1005 19.5385C17.0407 19.0881 16.7164 17.9023 17.0549 17.5549C17.4478 17.2043 17.857 17.9136 18.5154 18.2408ZM18.4531 15.8007C18.4987 16.3078 17.7687 16.4048 17.7374 15.8829C17.6934 15.3732 18.4203 15.2871 18.4531 15.8007ZM20.2063 15.9783C21.092 16.9876 20.1614 18.2089 19.1937 17.075C18.2742 16.0397 19.2531 14.8488 20.2063 15.9783Z" fill="black"/>
<path d="M27.3256 21.2708C27.0623 21.4979 26.9215 21.6735 26.9022 21.6981C26.7192 21.9459 27.0747 22.2244 27.2718 21.9866C27.2937 21.9586 27.4902 21.7153 27.8679 21.4355C28.7371 20.77 30.3529 20.2732 32.0657 20.6752C32.369 20.7321 32.464 20.2882 32.1627 20.2166C32.0341 20.1897 31.9048 20.1662 31.7749 20.1462C33.9437 17.3907 32.6144 12.2629 29.2008 11.938C28.3065 11.856 27.4097 12.1588 26.6753 12.7909C24.1772 14.8817 24.5258 19.7827 27.3256 21.2708ZM25.4623 16.4797C25.5715 14.4436 26.8665 12.437 28.9037 12.393C32.2524 12.4436 33.4529 17.626 31.2248 20.0805C30.6139 20.0338 30.0701 20.078 29.591 20.1763C30.8685 19.0306 30.7463 15.5288 28.7783 15.0883C26.2974 14.5611 25.7804 20.1995 28.4994 20.5279C28.2336 20.6475 27.9789 20.7902 27.7381 20.9545C26.2779 20.2846 25.347 18.4676 25.4623 16.4797ZM27.6774 19.156C27.77 18.6674 28.2435 18.9033 28.7338 18.7131C29.2197 18.4628 29.5481 17.8539 29.8097 18.1939C30.0328 18.5274 29.7401 19.5689 28.9619 19.9031C28.2009 20.2352 27.614 19.6045 27.6774 19.156ZM27.6469 16.5748C28.3846 15.6249 29.0201 16.7563 28.3112 17.624C27.5629 18.5767 26.9636 17.4213 27.6469 16.5748ZM28.905 16.5303C28.955 16.0721 29.4683 16.1969 29.4105 16.6508C29.3611 17.1164 28.8461 16.9817 28.905 16.5303Z" fill="black"/>
<path d="M38.0135 22.2174C38.3083 21.8607 38.5628 21.5526 38.6193 21.1924C38.6635 20.9115 38.539 20.6115 38.2779 20.3694C37.7727 19.9011 36.8811 19.729 35.8361 19.8837C34.736 16.3637 32.8332 12.5218 30.247 9.89256C30.9234 9.97873 31.5734 10.1692 32.1714 10.4664C32.2078 10.4845 32.2483 10.4928 32.2888 10.4906C32.3294 10.4883 32.3687 10.4755 32.4029 10.4534C32.437 10.4314 32.4649 10.4008 32.4836 10.3648C32.5024 10.3287 32.5115 10.2884 32.51 10.2478C32.4725 9.24186 31.4905 7.90616 30.3643 7.32827C29.2945 6.71827 27.8934 6.72694 27.2493 7.32897C24.7454 5.62038 21.8999 4.64905 18.946 4.73819C16.0965 4.64444 11.0868 6.31264 7.97989 9.52256C3.3952 13.6812 -0.739092 24.8875 2.5631 29.0244C4.147 32.0458 9.74247 33.4887 15.7002 33.8597C17.3007 35.1036 19.6436 35.5671 22.6316 35.0733C22.6612 35.075 22.6908 35.0681 22.7182 35.0581C24.1199 34.8469 25.3957 34.3053 26.594 33.3922C27.5797 33.2342 28.4854 33.046 29.2853 32.8323C29.3884 33.0399 29.5367 33.2219 29.7193 33.3647C31.0068 34.4504 33.2514 35.5205 35.409 34.0712C35.501 34.0119 37.6661 32.5828 38.2014 29.5754C38.4754 27.9912 38.2071 26.6636 37.3508 25.6508C37.273 25.4097 36.8993 24.1544 37.2528 23.3514C37.4539 22.8948 37.7511 22.535 38.0135 22.2174ZM28.6631 7.33803C29.1265 7.33749 29.6584 7.46202 30.1461 7.74311C31.0495 8.20475 31.746 9.131 31.9677 9.8603C30.2005 9.13787 28.0865 9.2178 26.1379 10.0786C26.4079 9.40092 26.8977 8.34358 27.5304 7.71022C27.7492 7.47709 28.169 7.33803 28.6631 7.33803ZM2.95403 28.766C-0.200342 24.8222 3.88216 13.8637 8.29653 9.86866C13.3085 4.91092 21.0029 3.53944 26.9383 7.66733C26.1918 8.57827 25.6986 9.8742 25.4977 10.4553C25.4118 10.6573 25.6507 10.8643 25.8397 10.7419C27.0499 10.1105 28.3465 9.80881 29.5843 9.84202C31.8694 12.0392 34.1843 16.0676 35.3724 19.9716C33.4152 20.3919 32.5695 21.9961 33.0114 23.9169C31.8487 23.9176 30.9161 24.2657 30.2929 25.1254C28.5213 25.0384 24.9887 24.7776 21.3983 24.0082C18.3475 23.3544 16.6803 22.8014 15.8405 22.4673C15.8891 22.445 15.9285 22.4068 15.9523 22.359C15.9761 22.3111 15.9829 22.2566 15.9714 22.2044C15.9599 22.1523 15.9309 22.1056 15.8892 22.0722C15.8475 22.0388 15.7956 22.0207 15.7422 22.0208C15.4461 22.0208 15.1875 22.0471 14.9608 22.087C14.9424 22.0878 14.9247 22.0912 14.9075 22.0963C14.6547 22.1444 14.4458 22.2097 14.2789 22.277C14.2749 22.2783 14.2711 22.2801 14.2672 22.2815C13.9334 22.4177 13.769 22.5585 13.7561 22.5699C13.5697 22.7319 13.742 23.0406 13.976 22.9692C13.7879 23.6743 13.6356 24.3534 13.5191 25.0053C13.5156 25.0182 13.5132 25.0314 13.512 25.0447C12.8145 28.7189 13.4092 31.5889 15.1183 33.3405C8.64271 32.9455 4.73677 31.4652 2.95403 28.766ZM29.8294 27.9825C23.7315 28.6059 17.8534 26.8792 14.0073 24.9382C14.1411 24.219 14.3192 23.4655 14.5417 22.679C14.6687 22.6339 14.7987 22.5975 14.9308 22.5701C15.2927 22.7699 16.8379 23.5104 21.3001 24.4665C24.769 25.2099 28.1837 25.4826 30.0376 25.5815C29.7267 26.2465 29.7775 27.2258 30.2822 27.6555C30.1162 27.7419 29.9637 27.8521 29.8294 27.9825ZM15.3493 32.9226C14.2384 31.7373 13.7845 30.1116 13.7153 28.3944C16.2222 28.4388 17.8819 28.9517 18.6494 30.5594C18.9369 31.2233 18.9812 32.0249 18.7788 32.9538C18.7204 33.2562 19.1624 33.3551 19.2368 33.0536C19.4283 32.1752 19.4111 31.3753 19.193 30.6858C21.8033 30.6301 23.3727 32.2535 22.4683 34.6294C19.4123 35.129 16.8443 34.5216 15.3493 32.9226ZM23.2001 34.4912C23.1337 34.5055 23.0679 34.5184 23.0018 34.5318C23.7229 32.056 22.3017 30.156 19.0052 30.2193C18.0954 28.5312 16.3758 27.9791 13.7055 27.9259C13.7047 27.0922 13.7872 26.2447 13.9233 25.4219C17.5993 27.3519 24.0953 29.0206 29.4532 28.4956C29.2545 28.894 29.1999 29.2847 29.245 29.6989C28.0575 31.5926 26.0787 33.8701 23.2001 34.4912ZM27.2679 32.8337C28.0393 32.1379 28.7589 31.2899 29.4153 30.2993C29.4804 30.4352 29.5622 30.5574 29.6583 30.662C29.2171 31.1016 29.0193 31.7687 29.1426 32.4138C28.5374 32.5794 27.9106 32.7179 27.2679 32.8337ZM37.7398 29.4933C37.24 32.302 35.2396 33.6226 35.1547 33.6774C34.1475 34.3279 32.5183 34.9648 30.0086 32.9958C29.1357 32.3204 29.6564 30.5528 30.8304 30.7188C32.118 30.9333 33.1451 31.744 33.1552 31.752C33.2037 31.7909 33.2657 31.8089 33.3275 31.8021C33.3892 31.7953 33.4458 31.7642 33.4847 31.7157C33.5235 31.6672 33.5415 31.6052 33.5347 31.5434C33.5279 31.4817 33.4968 31.4251 33.4483 31.3862C33.4029 31.3499 32.3192 30.4915 30.9074 30.2565C30.6024 30.2059 30.3058 30.2545 30.0432 30.3858C29.7404 30.0994 29.6134 29.508 29.7614 28.9864C29.9633 28.2753 30.5959 27.8605 31.497 27.8482C33.6109 27.8177 33.999 28.7662 34.0133 28.8033C34.1217 29.0925 34.5504 28.944 34.4561 28.6492C34.4375 28.596 33.9729 27.3451 31.4906 27.3794C31.2618 27.3826 31.0571 27.4068 30.8726 27.4463C30.4346 27.363 30.2626 26.8196 30.3213 26.31C30.4154 25.4931 31.1854 24.1731 33.4732 24.4118C35.1768 24.5887 36.4047 25.1616 37.1225 26.1146C37.7674 26.9707 37.9809 28.139 37.7398 29.4933ZM36.8237 23.1625C36.5638 23.7528 36.6185 24.5026 36.7209 25.0601C35.9266 24.4562 34.8364 24.0773 33.4989 23.9435C33.271 23.0446 33.3403 22.2194 33.699 21.6062C34.041 21.0215 34.6308 20.6272 35.4518 20.4339C37.1431 20.0346 38.1574 20.5648 38.1563 21.1198C38.1196 21.353 37.903 21.6152 37.6522 21.9188C37.3704 22.2598 37.051 22.6464 36.8237 23.1625Z" fill="black"/>
</svg>
